<svg xmlns="http://www.w3.org/2000/svg" version="1.1" xmlns:xlink="http://www.w3.org/1999/xlink" width="512" height="512" x="0" y="0" viewBox="0 0 512 512" style="enable-background:new 0 0 512 512" xml:space="preserve" class=""><g><path fill-rule="evenodd" d="M199.16 200.949a8 8 0 0 1 8-8h67.09a8 8 0 0 1 0 16h-67.09a8 8 0 0 1-8-8zm8-36.469h104.492a8 8 0 0 0 0-16H207.16a8 8 0 0 0 0 16zm-103.502-24.89h37.501c8.917 0 16.495 5.767 19.25 13.76l12.47-11.317a7.996 7.996 0 0 1 11.3.548 8 8 0 0 1-.548 11.3l-22.098 20.054v23.53c0 11.234-9.14 20.375-20.375 20.375h-37.501c-11.234 0-20.375-9.141-20.375-20.375v-37.5c.002-11.235 9.142-20.375 20.376-20.375zm37.501 16h-37.501c-2.371 0-4.375 2.004-4.375 4.375v37.5c0 2.371 2.003 4.375 4.375 4.375h37.501c2.371 0 4.375-2.004 4.375-4.375v-9.01l-6.125 5.559a7.97 7.97 0 0 1-5.375 2.076 7.98 7.98 0 0 1-5.658-2.343l-18.208-18.207a8 8 0 1 1 11.313-11.314l12.818 12.818 11.233-10.194v-6.885c.002-2.371-2.002-4.375-4.373-4.375zm43.021 92.172a8 8 0 0 1-.548 11.3l-22.098 20.054v23.531c0 11.234-9.14 20.374-20.375 20.374h-37.501c-11.234 0-20.375-9.14-20.375-20.374v-37.501c0-11.234 9.14-20.375 20.375-20.375h37.501c8.917 0 16.495 5.767 19.25 13.76l12.47-11.317a7.998 7.998 0 0 1 11.301.548zm-38.646 45.874-6.125 5.559a7.97 7.97 0 0 1-5.375 2.076 7.98 7.98 0 0 1-5.658-2.343l-18.208-18.207a8 8 0 1 1 11.313-11.314l12.818 12.818 11.233-10.194v-6.885c0-2.371-2.003-4.375-4.375-4.375h-37.501c-2.371 0-4.375 2.004-4.375 4.375v37.501c0 2.371 2.003 4.374 4.375 4.374h37.501c2.371 0 4.375-2.003 4.375-4.374v-9.011zm38.646 59.307a8 8 0 0 1-.548 11.3l-22.098 20.054v23.53c0 11.234-9.14 20.375-20.375 20.375h-37.501c-11.234 0-20.375-9.141-20.375-20.375v-37.501c0-11.234 9.14-20.374 20.375-20.374h37.501c8.917 0 16.496 5.767 19.251 13.76l12.47-11.316a7.998 7.998 0 0 1 11.3.547zm-38.646 45.874-6.125 5.559a7.97 7.97 0 0 1-5.375 2.076 7.98 7.98 0 0 1-5.658-2.343l-18.208-18.208a8 8 0 1 1 11.313-11.314l12.818 12.819 11.233-10.194v-6.886c0-2.371-2.003-4.374-4.375-4.374h-37.501c-2.371 0-4.375 2.003-4.375 4.374v37.501c0 2.371 2.003 4.375 4.375 4.375h37.501c2.371 0 4.375-2.004 4.375-4.375v-9.01zm361.567 86.222-20.476 21.103a17.338 17.338 0 0 1-12.481 5.271 17.328 17.328 0 0 1-12.107-4.901l-56.717-55.035a17.38 17.38 0 0 1-2.384-2.887v33.174c0 16.673-13.564 30.237-30.237 30.237H30.238C13.564 512 0 498.436 0 481.763V72.588c0-16.673 13.564-30.237 30.238-30.237h77.615V36.91a8 8 0 0 1 8-8h43.023C165.693 11.611 182.399 0 201.468 0s35.775 11.611 42.592 28.909h43.023a8 8 0 0 1 8 8v5.441h77.615c16.673 0 30.237 13.564 30.237 30.237v183.876c13.417 18.382 21.349 41.01 21.349 65.459 0 21.232-5.98 41.092-16.34 57.99l22.644 22.219a17.372 17.372 0 0 1 7.056-1.614c4.663-.12 9.046 1.669 12.372 4.897l56.715 55.034c6.881 6.682 7.047 17.712.37 24.591zm-108.596-91.973a112.438 112.438 0 0 1-6.776 7.432l19.888 19.518 7-7.215zm9.78-71.142c0-52.537-42.742-95.278-95.279-95.278s-95.279 42.741-95.279 95.278 42.742 95.279 95.279 95.279 95.279-42.742 95.279-95.279zM295.083 58.351v14.936H364a8 8 0 0 1 8 8v146.327a111.976 111.976 0 0 1 14.935 11.218V72.588c0-7.851-6.387-14.237-14.237-14.237zm-171.23 28.376h155.23V44.909h-40.867a7.999 7.999 0 0 1-7.777-6.124C227.204 25.369 215.291 16 201.468 16s-25.736 9.369-28.972 22.785a7.999 7.999 0 0 1-7.777 6.124h-40.867v41.818zm-8 16a8 8 0 0 1-8-8v-5.44H46.936v375.778H356v-40.506c-13.234 5.565-27.761 8.645-42.995 8.645-19.497 0-37.834-5.046-53.786-13.892H207.16a8 8 0 0 1 0-16h30.044a111.95 111.95 0 0 1-22.069-28.47h-7.975a8 8 0 0 1 0-16h.87a110.77 110.77 0 0 1-6.303-36.918c0-3.223.146-6.412.416-9.566a7.98 7.98 0 0 1-2.983-6.227 7.996 7.996 0 0 1 5.009-7.416 110.433 110.433 0 0 1 10.62-29.053h-7.629a8 8 0 0 1 0-16h18.026c20.38-26.159 52.166-43.016 87.819-43.016 15.233 0 29.76 3.08 42.995 8.645V89.286h-60.917v5.44a8 8 0 0 1-8 8h-171.23zm271.083 379.036v-63.55l-7.33-7.193a112.175 112.175 0 0 1-7.605 5.216v56.829a8 8 0 0 1-8 8H38.936a8 8 0 0 1-8-8V81.286a8 8 0 0 1 8-8h68.917V58.351H30.238C22.387 58.351 16 64.737 16 72.588v409.175C16 489.613 22.387 496 30.238 496h342.46c7.851 0 14.238-6.387 14.238-14.237zm108.652-9.831-56.715-55.034a1.359 1.359 0 0 0-.965-.382l-.023.001a1.365 1.365 0 0 0-.977.409l-20.476 21.104c-.322.331-.385.72-.381.988s.078.653.41.976l56.717 55.035c.531.515 1.449.501 1.965-.029l20.476-21.103c.515-.532.501-1.45-.031-1.965zM395.166 321.924c0 45.304-36.857 82.16-82.16 82.16s-82.16-36.856-82.16-82.16 36.857-82.16 82.16-82.16 82.16 36.856 82.16 82.16zm-16 0c0-36.48-29.679-66.16-66.16-66.16s-66.16 29.68-66.16 66.16 29.679 66.16 66.16 66.16 66.16-29.68 66.16-66.16zM201.468 28.991c-5.508 0-10 4.492-10 10s4.492 10 10 10 10-4.492 10-10-4.492-10-10-10z" clip-rule="evenodd" fill="#1b3a57" opacity="1" data-original="#000000" class=""></path></g></svg>