<svg xmlns="http://www.w3.org/2000/svg" version="1.1" xmlns:xlink="http://www.w3.org/1999/xlink" width="512" height="512" x="0" y="0" viewBox="0 0 512 512" style="enable-background:new 0 0 512 512" xml:space="preserve" class=""><g><path d="M196.85 216.78a5.959 5.959 0 0 0 6.2 0c25.45-15.38 39.05-29.25 45.48-46.38 6.13-16.32 5.26-33.95 4.05-58.33l-.02-.46a5.99 5.99 0 0 0-5.02-5.62c-8.34-1.37-13.63-5.88-16.65-14.2a6.004 6.004 0 0 0-5.64-3.95h-50.59c-2.52 0-4.78 1.58-5.64 3.95-3.03 8.32-8.32 12.83-16.65 14.2a6 6 0 0 0-5.02 5.62l-.02.46c-1.21 24.39-2.08 42.01 4.05 58.33 6.42 17.13 20.02 31 45.47 46.38zm-37.74-100.07c8.74-2.65 15.39-8.4 19.52-16.88h42.66c4.13 8.49 10.78 14.23 19.52 16.88 2.06 42.37 1.67 61.35-40.85 87.89-42.53-26.54-42.92-45.52-40.85-87.89zm26.8 52.05-18.21-18.21a6 6 0 0 1 0-8.48c2.34-2.34 6.14-2.34 8.49 0l13.97 13.97 33.57-33.57c2.34-2.34 6.14-2.34 8.49 0a6 6 0 0 1 0 8.48l-37.81 37.82c-1.13 1.13-2.65 1.76-4.24 1.76s-3.13-.64-4.26-1.77zM83.34 251.79c0-3.31 2.69-6 6-6h221.24c3.31 0 6 2.69 6 6s-2.69 6-6 6H89.34c-3.32 0-6-2.69-6-6zm0 41.7c0-3.31 2.69-6 6-6h194.94c3.31 0 6 2.69 6 6s-2.69 6-6 6H89.34c-3.32 0-6-2.68-6-6zm0 41.71c0-3.31 2.69-6 6-6H265.5c3.31 0 6 2.69 6 6s-2.69 6-6 6H89.34c-3.32 0-6-2.69-6-6zm202.7 41.7c0 3.31-2.69 6-6 6H89.34c-3.31 0-6-2.69-6-6s2.69-6 6-6h190.7c3.31 0 6 2.69 6 6zm155.52 35.4c1.79-1.15 3.48-2.5 5.06-4.08 6.92-6.92 9.76-16.03 7.99-25.67l-.03-.17c-1.24-6.74 1.39-13.08 7.04-16.98l.14-.1c8.06-5.56 12.49-14.01 12.49-23.79s-4.44-18.24-12.5-23.8l-.15-.1c-5.64-3.89-8.27-10.23-7.03-16.97l.03-.18c1.77-9.63-1.07-18.74-7.99-25.66s-16.03-9.76-25.68-7.98l-.16.03c-6.74 1.24-13.08-1.39-16.98-7.04l-.11-.16c-.94-1.36-1.96-2.6-3.06-3.75V21c0-3.31-2.69-6-6-6H82.22c-3.31 0-6 2.69-6 6v34.73H43.75c-3.31 0-6 2.69-6 6v360.53c0 3.31 2.69 6 6 6h268.02l-18.13 44.65a5.983 5.983 0 0 0 1.48 6.65 6.01 6.01 0 0 0 6.75.98l22.37-11.09 8.31 23.54a6.007 6.007 0 0 0 5.52 4h.14c2.44 0 4.64-1.48 5.56-3.74l24.3-59.84c3.61 1.6 7.6 2.44 11.85 2.44 4.24 0 8.23-.84 11.85-2.44l24.3 59.84a5.99 5.99 0 0 0 5.56 3.74h.14a6.007 6.007 0 0 0 5.52-4l8.31-23.54 22.37 11.09c2.23 1.11 4.92.72 6.75-.98s2.42-4.34 1.48-6.65zM88.22 27h300.41v221.43c-2.75-.84-5.67-1.27-8.73-1.27-6.71 0-12.79 2.09-17.74 5.99V61.73c0-3.31-2.69-6-6-6H88.22zM49.75 416.26V67.73h300.41v197.41c-3.28 1.8-7.13 2.44-11.1 1.71l-.21-.04c-9.62-1.76-18.74 1.07-25.66 7.99s-9.76 16.03-7.99 25.67l.03.17c1.24 6.74-1.39 13.08-7.01 16.96l-.17.12c-8.06 5.56-12.49 14.01-12.49 23.79s4.44 18.24 12.49 23.79l.16.11c5.64 3.89 8.27 10.23 7.03 16.95l-.04.2c-1.77 9.63 1.07 18.74 7.99 25.66 1.58 1.58 3.27 2.93 5.06 4.08l-1.61 3.96zm288.84 57.82-5.3-15.01c-.57-1.62-1.81-2.92-3.4-3.56s-3.38-.58-4.92.18l-14.26 7.07 18.8-46.31c3.01.41 6.14.34 9.33-.25l.19-.04c6.74-1.24 13.08 1.39 16.97 7.03l.11.15c.63.92 1.31 1.79 2.02 2.61zm27.4-57.54-.11-.15c-5.51-7.99-14.24-12.51-23.63-12.51-1.78 0-3.58.16-5.38.49l-.19.04c-5.71 1.05-10.9-.57-15-4.67-4.11-4.11-5.72-9.29-4.68-14.99l.04-.2c2.08-11.35-2.52-22.46-12.01-29.01l-.16-.11c-4.78-3.3-7.31-8.11-7.31-13.91s2.53-10.62 7.29-13.9l.17-.12c9.5-6.55 14.1-17.67 12.02-29.03l-.03-.17c-1.05-5.71.57-10.9 4.67-15 4.11-4.11 9.29-5.72 14.98-4.68l.21.04c11.34 2.09 22.46-2.52 29.01-12.02l.11-.16c3.3-4.78 8.11-7.31 13.91-7.31 5.81 0 10.62 2.53 13.91 7.31l.01.01.1.14c6.55 9.5 17.67 14.11 29.04 12.01l.16-.03c5.71-1.05 10.9.57 15.01 4.67 4.11 4.11 5.72 9.29 4.67 15.01l-.03.18c-2.08 11.35 2.52 22.46 12.03 29.02l.15.1c4.78 3.3 7.31 8.11 7.31 13.91s-2.53 10.62-7.32 13.92l-.14.1c-9.5 6.55-14.1 17.67-12.02 29.03l.03.17c1.05 5.71-.57 10.9-4.67 15-4.11 4.11-9.29 5.72-15.01 4.67l-.18-.03c-11.35-2.09-22.46 2.52-29 12l-.12.17c-3.3 4.78-8.11 7.31-13.91 7.31-5.82.01-10.63-2.52-13.93-7.3zm68.84 39.15a6.003 6.003 0 0 0-8.32 3.38l-5.3 15.01-19.54-48.12c.7-.82 1.38-1.68 2.01-2.6l.12-.17c3.89-5.64 10.23-8.27 16.97-7.03l.18.03c3.19.59 6.32.65 9.34.25l18.8 46.31zm3.22-114.19c0-32.06-26.08-58.14-58.14-58.14s-58.14 26.08-58.14 58.14 26.08 58.14 58.14 58.14 58.14-26.08 58.14-58.14zm-58.15 46.15c-25.44 0-46.14-20.7-46.14-46.14s20.7-46.14 46.14-46.14 46.14 20.7 46.14 46.14-20.69 46.14-46.14 46.14zm31.51-57.49-37.8 37.8c-1.12 1.13-2.65 1.76-4.24 1.76s-3.12-.63-4.24-1.76l-18.12-18.12a6 6 0 0 1 0-8.48c2.34-2.34 6.14-2.34 8.49 0l13.88 13.88 33.56-33.56c2.34-2.34 6.14-2.34 8.49 0a6.018 6.018 0 0 1-.02 8.48z" fill="#1b3a57" opacity="1" data-original="#000000" class=""></path></g></svg>