<svg xmlns="http://www.w3.org/2000/svg" version="1.1" xmlns:xlink="http://www.w3.org/1999/xlink" width="512" height="512" x="0" y="0" viewBox="0 0 682.667 682.667" style="enable-background:new 0 0 512 512" xml:space="preserve" class=""><g><defs><clipPath id="a" clipPathUnits="userSpaceOnUse"><path d="M0 512h512V0H0Z" fill="#1b3a57" opacity="1" data-original="#000000" class=""></path></clipPath></defs><g clip-path="url(#a)" transform="matrix(1.33333 0 0 -1.33333 0 682.667)"><path d="M0 0c-14.485-22.124-23.244-49.064-24.406-81.018 52.554-18.129 111.74-28.158 171.607-30.085M138.924 76.23c-29.055-3.739-56.097-11.614-79.482-23.823" style="stroke-width:20.148;stroke-linecap:round;stroke-linejoin:round;stroke-miterlimit:10;stroke-dasharray:none;stroke-opacity:1" transform="translate(34.406 166.082)" fill="none" stroke="#1b3a57" stroke-width="20.148" stroke-linecap="round" stroke-linejoin="round" stroke-miterlimit="10" stroke-dasharray="none" stroke-opacity="" data-original="#000000" opacity="1" class=""></path><path d="m0 0 16.498-44.956H49.095L65.621.057" style="stroke-width:20.148;stroke-linecap:round;stroke-linejoin:round;stroke-miterlimit:10;stroke-dasharray:none;stroke-opacity:1" transform="translate(173.357 242.313)" fill="none" stroke="#1b3a57" stroke-width="20.148" stroke-linecap="round" stroke-linejoin="round" stroke-miterlimit="10" stroke-dasharray="none" stroke-opacity="" data-original="#000000" opacity="1" class=""></path><path d="M0 0v-40.679c0-32.124-19.219-60.876-46.147-78.836-18.34-12.238-40.252-19.462-62.135-19.321-54.424.341-108.281 44.419-108.281 98.157V0" style="stroke-width:20.148;stroke-linecap:round;stroke-linejoin:round;stroke-miterlimit:10;stroke-dasharray:none;stroke-opacity:1" transform="translate(313.982 375.907)" fill="none" stroke="#1b3a57" stroke-width="20.148" stroke-linecap="round" stroke-linejoin="round" stroke-miterlimit="10" stroke-dasharray="none" stroke-opacity="" data-original="#000000" opacity="1" class=""></path><path d="M0 0c14.597 165.209-216.563 150.705-216.563 24.73V0s39.911-5.071 39.486 34.929C-156.64 14.391-128.492 0-85.889 0Z" style="stroke-width:20.148;stroke-linecap:round;stroke-linejoin:round;stroke-miterlimit:10;stroke-dasharray:none;stroke-opacity:1" transform="translate(313.982 375.907)" fill="none" stroke="#1b3a57" stroke-width="20.148" stroke-linecap="round" stroke-linejoin="round" stroke-miterlimit="10" stroke-dasharray="none" stroke-opacity="" data-original="#000000" opacity="1" class=""></path><path d="M0 0c23.498.85 37.161 29.603 26.135 48.809L.425 48.78" style="stroke-width:20.148;stroke-linecap:round;stroke-linejoin:round;stroke-miterlimit:10;stroke-dasharray:none;stroke-opacity:1" transform="translate(313.557 327.127)" fill="none" stroke="#1b3a57" stroke-width="20.148" stroke-linecap="round" stroke-linejoin="round" stroke-miterlimit="10" stroke-dasharray="none" stroke-opacity="" data-original="#000000" opacity="1" class=""></path><path d="M0 0c8.192-.028 16.355.085 24.547.339L37.02 34.957 16.298 142.716h-32.596L-37.02 34.957-24.547.339A712.497 712.497 0 0 1 0 0Z" style="stroke-width:20.148;stroke-linecap:round;stroke-linejoin:round;stroke-miterlimit:10;stroke-dasharray:none;stroke-opacity:1" transform="translate(206.154 54.64)" fill="none" stroke="#1b3a57" stroke-width="20.148" stroke-linecap="round" stroke-linejoin="round" stroke-miterlimit="10" stroke-dasharray="none" stroke-opacity="" data-original="#000000" opacity="1" class=""></path><path d="M0 0v47.478" style="stroke-width:20.148;stroke-linecap:round;stroke-linejoin:round;stroke-miterlimit:10;stroke-dasharray:none;stroke-opacity:1" transform="translate(68.818 69.087)" fill="none" stroke="#1b3a57" stroke-width="20.148" stroke-linecap="round" stroke-linejoin="round" stroke-miterlimit="10" stroke-dasharray="none" stroke-opacity="" data-original="#000000" opacity="1" class=""></path><path d="M0 0c-23.471.878-36.027 29.631-25.001 48.809H-.397" style="stroke-width:20.148;stroke-linecap:round;stroke-linejoin:round;stroke-miterlimit:10;stroke-dasharray:none;stroke-opacity:1" transform="translate(97.816 327.099)" fill="none" stroke="#1b3a57" stroke-width="20.148" stroke-linecap="round" stroke-linejoin="round" stroke-miterlimit="10" stroke-dasharray="none" stroke-opacity="" data-original="#000000" opacity="1" class=""></path><path d="M0 0c0-36.43 20.324-68.1 50.285-84.275 13.549-7.338 29.055-11.501 45.524-11.501 52.922 0 95.837 42.888 95.837 95.776 0 38.243-22.45 71.273-54.906 86.599-12.415 5.864-26.276 9.151-40.931 9.151C42.887 95.75 0 52.861 0 0Z" style="stroke-width:20.148;stroke-linecap:round;stroke-linejoin:round;stroke-miterlimit:10;stroke-dasharray:none;stroke-opacity:1" transform="translate(310.353 110.276)" fill="none" stroke="#1b3a57" stroke-width="20.148" stroke-linecap="round" stroke-linejoin="round" stroke-miterlimit="10" stroke-dasharray="none" stroke-opacity="" data-original="#000000" opacity="1" class=""></path><path d="M0 0c-29.734-5.326-60.433-8.47-91.33-9.462m8.277 187.389c43.851-5.637 85.604-22.69 115.963-51.188" style="stroke-width:20.148;stroke-linecap:round;stroke-linejoin:round;stroke-miterlimit:10;stroke-dasharray:none;stroke-opacity:1" transform="translate(322.031 64.442)" fill="none" stroke="#1b3a57" stroke-width="20.148" stroke-linecap="round" stroke-linejoin="round" stroke-miterlimit="10" stroke-dasharray="none" stroke-opacity="" data-original="#000000" opacity="1" class=""></path><path d="m0 0 .17.113" style="stroke-width:20.148;stroke-linecap:round;stroke-linejoin:round;stroke-miterlimit:10;stroke-dasharray:none;stroke-opacity:1" transform="translate(59.69 195.231)" fill="none" stroke="#1b3a57" stroke-width="20.148" stroke-linecap="round" stroke-linejoin="round" stroke-miterlimit="10" stroke-dasharray="none" stroke-opacity="" data-original="#000000" opacity="1" class=""></path><path d="M0 0c0-8.385-2.409-15.099-7.256-20.141-4.819-5.043-10.687-8.385-17.575-10v-10.311c0-5.24-4.45-9.49-9.666-9.49-5.215 0-9.496 4.25-9.496 9.49v10.226c-4.28.991-8.164 2.578-11.622 4.76-3.543 2.266-6.009 4.248-7.426 5.976l-2.069 2.72C-73.898-5.297-59.442 6.94-51.022-1.897c1.02-1.048 2.097-2.352 3.344-3.711 3.515-3.91 8.675-4.533 12.869-4.533 7.937 0 11.934 3.258 11.934 9.829 0 2.352-1.531 4.165-4.536 5.468-3.005 1.275-6.661 2.436-10.941 3.456-4.309 1.02-8.618 2.408-12.897 4.108-4.309 1.727-7.965 4.674-10.97 8.867-3.005 4.192-4.507 9.518-4.507 15.948 0 6.459 2.069 12.209 6.123 17.394 3.997 5.127 9.779 8.611 16.781 9.971V77.902c0 5.212 4.28 9.491 9.495 9.491 5.244 0 9.496-4.279 9.496-9.491V64.758c3.004-.652 5.754-1.558 8.221-2.748 2.494-1.161 4.195-2.124 5.159-2.889l1.473-1.275c12.472-9.348.425-25.92-10.346-16.855-7.285 6.119-23.839 7.479-23.839-3.767 0-2.381 1.106-4.278 3.288-5.724 2.211-1.443 4.933-2.436 8.164-2.917 3.203-.482 6.747-1.274 10.63-2.407 3.855-1.134 7.426-2.436 10.63-3.938 3.231-1.501 5.952-4.165 8.163-7.989C-1.105 10.454 0 5.694 0 0" style="fill-opacity:1;fill-rule:nonzero;stroke:none" transform="translate(440.092 93.987)" fill="#1b3a57" data-original="#000000" class="" opacity="1"></path></g></g></svg>