<svg xmlns="http://www.w3.org/2000/svg" version="1.1" xmlns:xlink="http://www.w3.org/1999/xlink" width="512" height="512" x="0" y="0" viewBox="0 0 503.868 503" style="enable-background:new 0 0 512 512" xml:space="preserve" class=""><g><path d="M327.605.434a175.12 175.12 0 0 0-96.363 28.855L192.391 6.887a16.82 16.82 0 0 0-12.664-1.598 16.44 16.44 0 0 0-10.137 7.824L157.016 34.91a111.527 111.527 0 0 0-28.133 0l-12.524-21.719a16.519 16.519 0 0 0-10.187-7.906c-4.3-1.16-8.883-.57-12.746 1.645L49.762 32.129a16.758 16.758 0 0 0-6.074 22.941l12.566 21.785a106.266 106.266 0 0 0-14.02 24.301H17.047C7.78 101.168.27 108.676.262 117.941v50.364c.008 9.265 7.52 16.773 16.785 16.785h25.187a106.41 106.41 0 0 0 14.02 24.3L43.71 231.138a16.768 16.768 0 0 0-1.75 12.761c1.14 4.317 3.957 8 7.824 10.235l43.723 25.226a16.816 16.816 0 0 0 12.664 1.598 16.437 16.437 0 0 0 10.137-7.824l12.574-21.797a110.804 110.804 0 0 0 28.133 0l8.941 15.543-10.223 10.226a24.814 24.814 0 0 0-4.84 28.56l-25.988 25.983a25.815 25.815 0 0 0-28.508 4.766L7.375 425.441a25.182 25.182 0 0 0 0 35.614l35.61 35.61c9.84 9.82 25.773 9.82 35.613 0l89.027-89.024a25.144 25.144 0 0 0 4.844-28.586l25.91-25.914a24.798 24.798 0 0 0 20.11.718v7.493c.011 9.265 7.523 16.777 16.788 16.789h25.188a106.24 106.24 0 0 0 14.02 24.296l-12.544 21.747a16.768 16.768 0 0 0 6.075 23l43.722 25.222a16.78 16.78 0 0 0 12.664 1.598 16.423 16.423 0 0 0 10.137-7.824l12.574-21.793a111.527 111.527 0 0 0 28.133 0l12.524 21.715a16.495 16.495 0 0 0 10.187 7.906c4.297 1.16 8.879.57 12.742-1.645l43.664-25.195a16.769 16.769 0 0 0 7.797-10.211c1.14-4.305.52-8.887-1.722-12.73l-12.563-21.79a106.37 106.37 0 0 0 14.016-24.296h25.187c9.27-.012 16.777-7.524 16.79-16.79v-50.359c-.013-9.265-7.52-16.777-16.79-16.789h-25.203c-.316-.777-.762-1.582-1.11-2.371 45.227-52.094 55.848-125.8 27.176-188.543C459.27 40.547 396.59.336 327.605.434zm159.473 176.261c-.058 54.844-28.316 105.801-74.8 134.899-.188.136-.423.21-.594.36a154.952 154.952 0 0 1-105.711 22.577 8.36 8.36 0 0 0-4.04-.75c-.105.012-.187.074-.288.09-83.516-13.832-141.649-90.535-132.391-174.68 9.258-84.144 82.676-146.375 167.2-141.718 84.526 4.652 150.667 74.57 150.624 159.222zM411.54 336.172c.031 24.656-17.816 45.703-42.148 49.695-24.332 3.992-47.973-10.242-55.82-33.62 4.644.37 9.296.71 14.034.71 29.192.035 57.93-7.23 83.598-21.133.125 1.45.336 2.899.336 4.348zM151.344 176.695c0 5.36.336 10.633.8 15.871a50.33 50.33 0 0 1-54.265-71.933 50.331 50.331 0 0 1 45.07-27.871 49.371 49.371 0 0 1 26.082 7.476 174.911 174.911 0 0 0-17.687 76.457zm-25.352 57.215a8.35 8.35 0 0 0-8.785 4.063l-15.387 26.8-43.593-25.21 15.445-26.774a8.396 8.396 0 0 0-.895-9.652 90.268 90.268 0 0 1-16.828-29.184 8.385 8.385 0 0 0-7.93-5.648H17.048V117.94H48.02a8.39 8.39 0 0 0 7.925-5.644 90.289 90.289 0 0 1 16.836-29.184 8.39 8.39 0 0 0 .89-9.652L58.177 46.652l43.59-25.156L117.21 48.27a8.327 8.327 0 0 0 8.785 4.062 94.71 94.71 0 0 1 33.902 0 8.367 8.367 0 0 0 8.79-4.055l15.39-26.804 32.313 18.632a177.488 177.488 0 0 0-39.282 45.301 66.055 66.055 0 0 0-34.16-9.43 67.148 67.148 0 0 0-60.215 36.891c-11.46 22.715-9.105 49.953 6.09 70.356a67.145 67.145 0 0 0 65.656 26.004 173.858 173.858 0 0 0 6.567 24.644c-.383-.012-.766 0-1.149.04a94.689 94.689 0 0 1-33.898 0zm59.403 108.473-23.708 23.71-11.875-11.866-11.87-11.872 23.745-23.738.52.52zM66.727 484.793a8.4 8.4 0 0 1-11.875 0l-35.61-35.613a8.378 8.378 0 0 1-2.457-5.93 8.38 8.38 0 0 1 2.457-5.934l11.871-11.87 47.485 47.48zm89.027-89.023-65.29 65.289-47.48-47.485 65.286-65.285a8.597 8.597 0 0 1 11.867 0l35.613 35.613a8.409 8.409 0 0 1 .004 11.868zM203.3 336.53l-.074-.113-29.153-29.152-6.469-6.489a8.353 8.353 0 0 1 0-11.8l13.848-13.852a177.67 177.67 0 0 0 47.402 47.492l-13.78 13.832c-3.235 3.262-8.497 3.297-11.778.082zm283.777-25.539v50.36H456.11a8.4 8.4 0 0 0-7.93 5.644 90.217 90.217 0 0 1-16.824 29.184 8.39 8.39 0 0 0-.894 9.652l15.492 26.813-43.59 25.156-15.445-26.778a8.388 8.388 0 0 0-8.79-4.062 94.51 94.51 0 0 1-33.898 0 8.361 8.361 0 0 0-8.789 4.062l-15.39 26.801-43.594-25.21 15.445-26.778a8.397 8.397 0 0 0-.894-9.652A90.115 90.115 0 0 1 274.18 367a8.398 8.398 0 0 0-7.93-5.648h-30.973v-21.403l8.309-8.34a175.003 175.003 0 0 0 51.894 18.274 67.04 67.04 0 0 0 44.618 50.781 67.046 67.046 0 0 0 86.605-78.312 177.103 177.103 0 0 0 21.348-17.32c.05.148.12.312.176.456a8.38 8.38 0 0 0 7.882 5.504zm0 0" fill="#1b3a57" opacity="1" data-original="#000000" class=""></path><path d="M186.672 156.906c-.059.196-.008.387-.05.582a142.41 142.41 0 0 0 40.35 119.582c1.79 1.785 3.708 3.352 5.563 5.024.05.066.137.105.188.168 38.668 35.031 93.382 46.14 142.652 28.968 49.27-17.175 85.223-59.89 93.738-111.367 8.512-51.476-11.77-103.492-52.886-135.617a8.318 8.318 0 0 0-1.2-.883c-40.214-31.238-94.054-38.601-141.183-19.312-47.125 19.289-80.352 62.289-87.125 112.758zm127.496 144.305c19.527-29.813 58.09-40.594 90.25-25.234a125.782 125.782 0 0 1-90.25 25.234zm103.719-37.113a88.09 88.09 0 0 0-67.809-8.621 88.08 88.08 0 0 0-53.566 42.464 124.817 124.817 0 0 1-46.395-22.843 142.212 142.212 0 0 1 13.168-18.391 8.364 8.364 0 0 0 .918-9.664l-23.851-41.41a4.554 4.554 0 0 1-.48-3.457 4.539 4.539 0 0 1 2.116-2.77l67.356-38.91a4.545 4.545 0 0 1 3.484-.457 4.438 4.438 0 0 1 2.719 2.129l23.836 41.383a8.466 8.466 0 0 0 8.773 4.066 150.323 150.323 0 0 1 54.082 0 8.41 8.41 0 0 0 8.77-4.066l23.863-41.426a4.377 4.377 0 0 1 2.688-2.09 4.547 4.547 0 0 1 3.449.442l12.285 7.058a125.527 125.527 0 0 1-35.402 96.563zm32.093-117.832-.64-.368a21.316 21.316 0 0 0-16.156-2.066 21.039 21.039 0 0 0-12.887 9.957l-20.942 36.352a165.601 165.601 0 0 0-48.328 0l-20.906-36.305a21.064 21.064 0 0 0-12.918-10.004A21.315 21.315 0 0 0 301 145.93l-67.426 38.953a21.296 21.296 0 0 0-9.922 12.972 21.296 21.296 0 0 0 2.176 16.184l20.926 36.328c-3.34 4.25-6.461 8.668-9.352 13.238a125.435 125.435 0 0 1-35.086-93.44l13.844 4.003c1.742.445 3.535.676 5.336.676a21.277 21.277 0 0 0 20.563-16.012l10.539-40.555a167.54 167.54 0 0 0 23.777-4.754 169.15 169.15 0 0 0 22.77-8.109l29.828 29.461c8.398 8.25 21.879 8.195 30.207-.129l52.023-52.742c1.91 1.691 3.86 3.312 5.692 5.144a124.96 124.96 0 0 1 33.085 59.118zM238.844 87.148c42.531-42.437 109.105-48.953 159.058-15.562L347.31 122.87a4.539 4.539 0 0 1-6.5.098l-33.993-33.574a8.41 8.41 0 0 0-9.53-1.598 153.017 153.017 0 0 1-25.388 9.547 151.324 151.324 0 0 1-26.722 4.851 8.396 8.396 0 0 0-7.367 6.25l-12.016 46.22a4.448 4.448 0 0 1-2.043 2.753 4.403 4.403 0 0 1-3.18.559l-16.406-4.747a125.13 125.13 0 0 1 34.68-66.082zm0 0" fill="#1b3a57" opacity="1" data-original="#000000" class=""></path></g></svg>